<?xml version="1.0" encoding="UTF-8" standalone="no"?>
<!-- Created with Inkscape (http://www.inkscape.org/) -->
<svg id="svg2" xmlns:rdf="http://www.w3.org/1999/02/22-rdf-syntax-ns#" xmlns="http://www.w3.org/2000/svg" height="44mm" width="100mm" version="1.1" xmlns:cc="http://creativecommons.org/ns#" xmlns:xlink="http://www.w3.org/1999/xlink" viewBox="0 0 354.33071 155.90551" xmlns:dc="http://purl.org/dc/elements/1.1/">
 <metadata id="metadata7">
  <rdf:RDF>
   <cc:Work rdf:about="">
    <dc:format>image/svg+xml</dc:format>
    <dc:type rdf:resource="http://purl.org/dc/dcmitype/StillImage"/>
    <dc:title/>
   </cc:Work>
  </rdf:RDF>
 </metadata>
 <g id="g11879" transform="translate(-120.06 -210.8)">
  <path id="path4346" d="m215.92 230.31a13.181 13.181 0 0 0 -9.9531 4.3535l-13.32 14.777a13.181 13.181 0 0 0 1.1602 18.785l24.682 21.381-23.348 21.641a13.181 13.181 0 0 0 -0.93164 18.377l12.281 13.943a13.181 13.181 0 0 0 18.723 1.0723l27.91-25.19a13.181 13.181 0 0 0 3.1992 10.184l12.279 13.943a13.181 13.181 0 0 0 18.723 1.0723l27.914-25.201a13.181 13.181 0 0 0 3.1992 10.186l12.279 13.943a13.181 13.181 0 0 0 18.723 1.0723l51.408-46.412a13.181 13.181 0 0 0 -0.21484 -19.756l-52.033-44.957a13.181 13.181 0 0 0 -18.406 1.1484l-13.31 14.79a13.181 13.181 0 0 0 -3.3066 7.4707l-27.08-23.396a13.181 13.181 0 0 0 -18.406 1.1484l-13.32 14.777a13.181 13.181 0 0 0 -3.3066 7.4727l-27.082-23.398a13.181 13.181 0 0 0 -8.4531 -3.2051z" xlink:href="#text4257" fill="#fff"/>
  <g id="text4257">
   <path id="path4447" style="" d="m267.79 288.44-51.409 46.414-12.28-13.945 34.134-31.636-35.799-31.012 13.32-14.777 52.033 44.957z"/>
   <path id="path4449" style="" d="m329.9 288.44-51.409 46.414-12.28-13.945 34.134-31.636-35.799-31.012 13.32-14.777 52.033 44.957z"/>
   <path id="path4451" style="" d="m392.02 288.44-51.409 46.414-12.28-13.945 34.134-31.636-35.799-31.012 13.32-14.777 52.033 44.957z"/>
  </g>
 </g>
</svg>
